# xmcd
#
# Track frame offsets: 
#        150
#        17779
#        39104
#        55546
#        75764
#        97876
#        113933
#        124156
#        144767
#        160744
#        176384
#
# Disc length: 2653 seconds
#
# Revision: 0
# Processed by: cddbd v1.5.1PL0 Copyright (c) Steve Scherf et al.
# Submitted via: ExactAudioCopy v0.95b1
#
DISCID=6f0a5b0b
DTITLE=Ernie Cox - Walk in the Light
DYEAR=2003
DGENRE=Gospel
TTITLE0=He Will Remember Me
TTITLE1=Precious Lord
TTITLE2=You Can't Make Me Doubt Him
TTITLE3=Give Me Jesus
TTITLE4=Just a Closer Walk With Thee
TTITLE5=Count Your Blessings
TTITLE6=Walk in the Narrow Way
TTITLE7=Including Me
TTITLE8=No, Not One
TTITLE9=This Little Light of Mine
TTITLE10=Walk in the Light
EXTD=
EXTT0=
EXTT1=
EXTT2=
EXTT3=
EXTT4=
EXTT5=
EXTT6=
EXTT7=
EXTT8=
EXTT9=
EXTT10=
PLAYORDER=
